<svg width="59" height="71" viewBox="0 0 59 71" fill="none" xmlns="http://www.w3.org/2000/svg">
<line x1="29.0973" y1="32" x2="29.0973" y2="40" stroke="white" stroke-width="2"/>
<line x1="22.5973" y1="29.134" x2="29.5255" y2="33.134" stroke="white" stroke-width="2"/>
<line x1="28.5973" y1="26.134" x2="35.5255" y2="30.134" stroke="white" stroke-width="2"/>
<line x1="22.5973" y1="36.134" x2="29.5255" y2="40.134" stroke="white" stroke-width="2"/>
<line x1="28.5973" y1="33.134" x2="35.5255" y2="29.134" stroke="white" stroke-width="2"/>
<line x1="28.5973" y1="40.134" x2="35.5255" y2="36.134" stroke="white" stroke-width="2"/>
<line x1="22.5973" y1="30.134" x2="29.5255" y2="26.134" stroke="white" stroke-width="2"/>
<line x1="35.0973" y1="29" x2="35.0973" y2="37" stroke="white" stroke-width="2"/>
<line x1="23.0973" y1="29" x2="23.0973" y2="37" stroke="white" stroke-width="2"/>
<path d="M30.0973 42.5001L15.5973 47.2501L1.09728 52.0001M38.5973 45.5L24.0973 50.25L9.59728 55M57.5973 52.3029L28.5973 61.803M49.0973 49.303L34.5973 54.053L20.0973 58.803M20.0973 45.5L49.0973 55M28.5973 42.5001L43.0973 47.2501L57.5973 52.0001M1.09728 52.303L30.0973 61.803M9.59727 49.303L24.0973 54.053L38.5973 58.803" stroke="white" stroke-width="2"/>
<path d="M49.0973 49.303L34.5973 54.053L20.0973 58.803M57.5973 52.303L28.5973 61.803" stroke="white"/>
<path d="M28.5973 42.5L43.0973 47.25L57.5973 52M20.0973 45.5L49.0973 55" stroke="white"/>
<path d="M9.59727 49.303L24.0973 54.053L38.5973 58.803M1.09727 52.303L30.0973 61.803" stroke="white"/>
<path d="M30.0973 3.303L15.5973 8.053L1.0973 12.803M38.5973 6.30298L9.59729 15.803" stroke="white" stroke-width="2"/>
<path d="M49.0973 10.1057L34.5973 14.8557L20.0973 19.6057M57.5973 13.1057L28.5973 22.6057" stroke="white" stroke-width="2"/>
<path d="M28.5973 3.303L43.0973 8.053L57.5973 12.803M20.0973 6.30298L49.0973 15.803" stroke="white" stroke-width="2"/>
<path d="M9.59727 10.1057L24.0973 14.8557L38.5973 19.6057M1.09727 13.1057L30.0973 22.6057" stroke="white" stroke-width="2"/>
<path d="M38.0973 18.9999V45.4999M48.5973 15.4999V48.9999M57.2754 12.3679V52.729" stroke="white" stroke-width="2"/>
<path d="M20.2754 19.632L20.2754 46.132M9.77541 16.132L9.77541 49.632M1.09727 12.5L1.09727 52.7564" stroke="white" stroke-width="2"/>
</svg>
